<?xml version="1.0" encoding="UTF-8" standalone="no"?> <svg xmlns="http://www.w3.org/2000/svg" viewBox="0 0 64 64"><title>shopping icon 64px</title><g id="Layer_2" data-name="Layer 2"><path d="M47.16,14.55H23.43l-.43,0-.1-.7a2.49,2.49,0,0,0-2.46-2.12h-6a1.71,1.71,0,0,0-1.7,1.67,1.77,1.77,0,0,0,1.78,1.74h5.12l.19,1.25,2.72,18.65.12.81L19.87,39a1.91,1.91,0,0,0-.49,1.19,2.9,2.9,0,0,0,2.93,3.11H47.22a1.51,1.51,0,0,0,0-3H24a.38.38,0,0,1-.27-.65L26.2,36.4H44.84a4,4,0,0,0,4.06-3.09l2.32-14.7C51.56,16.47,49.64,14.55,47.16,14.55Z"/><circle cx="25.66" cy="48.76" r="3.49"/><circle cx="40.77" cy="48.76" r="3.49"/></g></svg>