<?xml version="1.0" standalone="no"?>
<!DOCTYPE svg PUBLIC "-//W3C//DTD SVG 20010904//EN"
 "http://www.w3.org/TR/2001/REC-SVG-20010904/DTD/svg10.dtd">
<svg version="1.0" xmlns="http://www.w3.org/2000/svg"
 width="64.000000pt" height="64.000000pt" viewBox="0 0 64.000000 64.000000"
 preserveAspectRatio="xMidYMid meet">

<g transform="translate(0.000000,64.000000) scale(0.100000,-0.100000)"
fill="#000000" stroke="none">
<path d="M223 496 c-23 -7 -62 -25 -85 -39 -46 -27 -138 -118 -138 -137 0 -26
106 -122 169 -153 58 -28 75 -32 151 -32 76 0 93 4 151 32 63 31 169 127 169
153 0 25 -106 122 -167 152 -75 37 -180 47 -250 24z m188 -85 c35 -35 39 -44
39 -91 0 -47 -4 -56 -39 -91 -35 -35 -44 -39 -91 -39 -47 0 -56 4 -91 39 -35
35 -39 44 -39 91 0 47 4 56 39 91 35 35 44 39 91 39 47 0 56 -4 91 -39z"/>
<path d="M270 370 c-43 -43 -11 -120 50 -120 17 0 39 9 50 20 11 11 20 33 20
50 0 17 -9 39 -20 50 -11 11 -33 20 -50 20 -17 0 -39 -9 -50 -20z"/>
</g>
</svg>
