<?xml version="1.0" standalone="no"?>
<!DOCTYPE svg PUBLIC "-//W3C//DTD SVG 20010904//EN"
 "http://www.w3.org/TR/2001/REC-SVG-20010904/DTD/svg10.dtd">
<svg version="1.0" xmlns="http://www.w3.org/2000/svg"
 width="64.000000pt" height="64.000000pt" viewBox="0 0 64.000000 64.000000"
 preserveAspectRatio="xMidYMid meet">

<g transform="translate(0.000000,64.000000) scale(0.100000,-0.100000)"
fill="#000000" stroke="none">
<path d="M245 631 c-92 -24 -173 -90 -215 -176 -34 -69 -35 -198 -2 -265 34
-71 75 -114 144 -151 58 -31 70 -34 148 -33 72 0 93 4 136 26 75 40 107 70
145 140 31 58 34 70 34 148 0 78 -3 90 -34 148 -57 104 -144 160 -260 167 -36
2 -79 1 -96 -4z m146 -83 c79 -27 83 -19 -100 -202 l-168 -168 -18 39 c-88
185 94 397 286 331z m157 -157 c29 -84 7 -167 -63 -237 -76 -77 -173 -94 -269
-49 l-38 18 168 168 c183 183 175 179 202 100z"/>
</g>
</svg>
