<?xml version="1.0" standalone="no"?>
<!DOCTYPE svg PUBLIC "-//W3C//DTD SVG 20010904//EN"
 "http://www.w3.org/TR/2001/REC-SVG-20010904/DTD/svg10.dtd">
<svg version="1.0" xmlns="http://www.w3.org/2000/svg"
 width="64.000000pt" height="64.000000pt" viewBox="0 0 64.000000 64.000000"
 preserveAspectRatio="xMidYMid meet">

<g transform="translate(0.000000,64.000000) scale(0.100000,-0.100000)"
fill="#000000" stroke="none">
<path d="M220 610 c-9 -17 -21 -20 -90 -20 l-80 0 0 -35 0 -35 270 0 270 0 0
35 0 35 -80 0 c-69 0 -81 3 -90 20 -9 18 -21 20 -100 20 -79 0 -91 -2 -100
-20z"/>
<path d="M90 439 c0 -125 23 -386 36 -406 14 -22 19 -23 194 -23 175 0 180 1
194 22 13 21 36 282 36 407 l0 41 -230 0 -230 0 0 -41z"/>
</g>
</svg>
